<?xml version="1.0" encoding="UTF-8"?>
<svg id="Layer_1" data-name="Layer 1" xmlns="http://www.w3.org/2000/svg" viewBox="0 0 252.42 256.46">
  <path d="m17.65,19.14L36.12,0l-13.13,68.14H0L3.28,0h224.09l3.28,68.14h-22.98L194.54,0l18.47,19.14H17.65Zm101.78,216.27l57.46,5.74v15.31H53.76v-15.31l57.46-5.74h8.21Zm-22.57-116.75c0-39.43,0-79.24-1.23-118.66h39.4c-1.23,38.66-1.23,78.47-1.23,118.66v19.14c0,39.43,0,79.24,1.23,118.66h-39.4c1.23-38.66,1.23-78.47,1.23-118.66v-19.14Z"/>
  <path d="m141.65,221.72l23.54-4.36-7.19,11.99c.44-9.81.65-32.26.65-45.77v-98.43l-19-2.29v-7.83l33.75-10.12,3.15,1.8-.9,31.95v42.57l1,2.89v68.18l-2.22,19.72-32.78-2.22v-8.08Zm91.84-43.76c0-28.72-11.8-44.31-28.72-44.31-8.02,0-18.93,3.56-35.18,19.82l-2-4.01c12.91-19.59,27.39-28.05,42.53-28.05,23.6,0,42.3,20.26,42.3,54.55s-19.59,56.78-45.64,56.78c-13.58,0-27.39-6.01-39.19-29.17l2-3.56c11.58,14.7,23.6,20.48,34.07,20.48,16.03,0,29.84-13.8,29.84-42.53Z"/>
</svg>